<svg xmlns="http://www.w3.org/2000/svg" viewBox="0 0 64 64">
<circle cx="32" cy="32" r="32" fill="#000"/>
<g transform="translate(-16.5, -1) scale(0.59)">
<path d="M89.7984 10.579L88.3948 12.1156C88.2711 12.2524 88.2542 12.4829 88.3573 12.6441L88.5766 12.972C88.6215 13.0451 88.8783 13.4067 89.2306 13.7291C90.6435 15.0202 92.3488 15.7323 94.0315 15.7323C95.1446 15.7323 96.1884 15.4325 97.1329 14.844C97.2172 14.7916 97.2772 14.7054 97.2978 14.6079C97.3165 14.5086 97.2922 14.4037 97.2266 14.3175C96.9923 14.0158 96.745 13.7159 96.492 13.4217C96.3683 13.2831 96.1378 13.2437 95.9748 13.3374C94.3407 14.2519 92.2794 13.8808 90.6323 12.4604L92.6224 10.2792C92.6992 10.1986 92.731 10.0937 92.7123 9.99434C92.6954 9.89315 92.628 9.80882 92.5249 9.7601L89.491 8.36965L90.1038 7.69879C90.2162 7.57324 90.2687 7.36711 90.2275 7.20595L89.5585 4.4794L92.33 4.89541L92.405 4.90103C92.5568 4.90103 92.7198 4.83169 92.8154 4.72675L93.4169 4.0409L95.0866 6.94922C95.1952 7.13661 95.4538 7.17409 95.6113 7.00731L97.6014 4.82045C99.1567 6.31958 100.234 8.86999 98.261 11.1749C97.7794 10.654 97.3203 10.1967 96.8668 9.78259C96.4976 9.44528 96.1453 9.13983 95.7874 8.85125C95.6356 8.7257 95.3826 8.75006 95.2571 8.90372L94.5431 9.77322C94.4775 9.85005 94.4476 9.94749 94.455 10.0487C94.4663 10.148 94.5131 10.2398 94.5937 10.3054C94.931 10.5828 95.2702 10.8732 95.5981 11.1712C96.9792 12.4361 98.2029 13.8584 99.2298 15.3987C101.72 19.126 103.038 23.4678 103.038 27.954C103.038 32.7063 101.227 34.5146 98.9262 36.8101C96.9792 38.7534 94.7717 40.9571 93.4656 45.2859C93.4356 45.3871 93.4487 45.4939 93.5031 45.5782C93.5593 45.6625 93.6493 45.7188 93.7542 45.7319C93.9678 45.7544 94.1683 45.775 94.367 45.7881C94.5113 45.7993 94.7492 45.8106 94.9441 45.8143H94.946C95.1315 45.8143 95.3133 45.6794 95.3695 45.4995C96.5407 41.8547 98.4278 39.9714 100.26 38.1406C102.657 35.7514 104.923 33.4933 104.925 27.9559C104.925 23.0987 103.499 18.3951 100.798 14.355C100.403 13.7703 99.9662 13.1838 99.5015 12.6103L99.524 12.586C100.8 11.1918 101.366 9.52211 101.164 7.75688C100.973 6.13969 100.114 4.55997 98.7482 3.3082C98.4428 3.03086 98.1167 2.83035 97.9405 2.73103L97.5901 2.53989C97.4252 2.44807 97.1853 2.49117 97.0654 2.62609L95.6731 4.17957L94.0034 1.2675C93.9004 1.0801 93.6418 1.04637 93.4806 1.21315L91.9702 2.86782C91.9515 2.89031 91.9028 2.93529 91.8297 2.91655L87.5328 2.27004L87.4766 2.2663C87.381 2.2663 87.2929 2.30752 87.2367 2.37686C87.1767 2.44994 87.1561 2.55113 87.1805 2.65607L88.2149 6.87801C88.2243 6.91174 88.2036 6.99419 88.1774 7.02605L86.667 8.68072C86.5958 8.76318 86.5658 8.86811 86.5865 8.96743C86.6071 9.06488 86.6745 9.14733 86.7739 9.19605L89.8059 10.5865L89.7984 10.579Z" fill="#F5B333"/>
<path d="M79.6428 11.2009C81.8053 11.2009 83.5631 9.38695 83.5631 7.15886C83.5631 4.93077 80.7072 1.14357 80.383 0.731312L79.907 0.12791C79.7702 -0.0463641 79.5004 -0.0388684 79.3805 0.12791L78.9026 0.733187C78.3704 1.41342 75.7207 4.92515 75.7207 7.16073C75.7207 9.39632 77.4803 11.2028 79.6447 11.2028M79.6428 9.31949C78.5185 9.31949 77.6021 8.35067 77.6021 7.16073C77.6021 6.19566 78.6459 4.3461 79.6409 2.90693C80.6341 4.3461 81.6798 6.19941 81.6798 7.16073C81.6798 8.35067 80.7653 9.31949 79.6428 9.31949Z" fill="#F5B333"/>
<path d="M73.3531 17.5907C73.9808 17.7069 74.6049 17.8849 75.2045 18.1154C75.6336 18.284 76.0478 18.4789 76.4338 18.6907C76.595 18.7806 76.833 18.7413 76.951 18.6045L79.6232 15.5687L82.3273 18.6063C82.4041 18.6907 82.5203 18.7413 82.6421 18.7413C82.7133 18.7413 82.7845 18.7244 82.8464 18.6907C83.2361 18.4752 83.6484 18.2822 84.0738 18.1154C84.6753 17.883 85.2993 17.7069 85.9271 17.5888C86.0601 17.5644 86.2438 17.467 86.3393 17.334C86.7048 16.843 87.1264 16.3914 87.5874 15.9941C87.7317 15.8704 87.7054 15.7467 87.6886 15.6999C87.6717 15.653 87.6117 15.5462 87.4168 15.5462C85.8971 15.5931 84.4279 15.9135 83.0225 16.5057C82.9944 16.5057 82.97 16.4926 82.9625 16.4851L79.9043 13.052C79.7694 12.9003 79.5108 12.8984 79.3721 13.052L76.3176 16.4832C76.3176 16.4832 76.2839 16.5057 76.2333 16.5001C74.8541 15.9135 73.3812 15.5931 71.8446 15.5462C71.6609 15.5462 71.6028 15.6643 71.5897 15.6999C71.5729 15.7467 71.5466 15.8704 71.689 15.9941C72.1538 16.3932 72.5754 16.8449 72.9408 17.334C73.0289 17.452 73.2013 17.5607 73.3512 17.5907" fill="#F5B333"/>
<path d="M82.8526 43.5797C82.6746 43.6246 82.5134 43.7596 82.4816 43.9263C82.4403 44.1774 82.4197 44.496 82.4197 44.7377V45.0994C82.4197 45.2774 82.5696 45.4161 82.7626 45.4161L82.8264 45.4105C85.0638 45.0507 86.5761 44.4173 88.3263 43.1843C90.7174 41.5015 92.2934 38.9323 92.9511 36.3351L93.1235 35.6586C93.146 35.563 93.1235 35.4675 93.0636 35.3963C92.9999 35.3232 92.9024 35.2819 92.7956 35.2819L91.9561 35.2763C88.4575 35.2763 85.1594 36.2358 82.6783 37.9729C81.865 38.5369 81.1642 39.1703 80.587 39.8599V35.2726C83.5028 35.1039 85.5192 34.1257 86.7447 32.2837C87.8897 30.5653 88.1483 28.3803 88.4013 26.2422C88.6224 24.3251 88.8323 22.5149 89.6418 21.2182C89.8892 20.8209 90.1796 20.493 90.5263 20.2175C90.6181 20.1482 90.6612 20.0488 90.6387 19.957C90.6181 19.8633 90.5413 19.7902 90.427 19.7584C89.9098 19.616 89.3682 19.5148 88.8135 19.4548C88.4331 19.4211 88.0977 19.4023 87.7885 19.4023C82.7776 19.4023 78.7019 23.1314 78.7019 27.7151V33.3443C73.5392 32.9939 73.2319 29.9113 72.7615 26.0566C72.4017 23.109 72.1469 22.0671 71.7927 21.3044C73.5073 21.2182 76.4157 22.3575 77.7387 24.4919C77.8623 24.6924 78.1528 24.6718 78.2334 24.4638C78.4076 24.0553 78.6044 23.5962 78.818 23.2364C78.9061 23.0958 78.8949 22.8935 78.7899 22.7585C77.0753 20.6579 74.3506 19.4023 71.4985 19.4023C71.1912 19.4023 70.8558 19.4192 70.4716 19.4548C69.9207 19.5129 69.3772 19.616 68.86 19.7565C68.7457 19.7884 68.667 19.8596 68.6464 19.9533C68.6258 20.047 68.667 20.1444 68.7551 20.2119C69.1036 20.493 69.4016 20.8303 69.6433 21.2163C70.4491 22.5074 70.6627 24.3195 70.8876 26.2496C71.1368 28.3691 71.3954 30.5597 72.5404 32.2799C73.7678 34.122 75.7823 35.1002 78.7 35.2688V39.8562C78.1228 39.1685 77.4201 38.5369 76.6068 37.971C74.1201 36.232 70.8258 35.2726 67.3272 35.2726L66.4914 35.2782C66.3846 35.2782 66.2853 35.3194 66.2216 35.3906C66.1597 35.4618 66.1353 35.5574 66.1597 35.6549L66.334 36.3313C66.9899 38.9267 68.6689 41.286 71.0619 42.9706C73.4811 44.6722 76.53 45.6091 79.6444 45.6091H80.2085C80.4184 45.6091 80.587 45.4536 80.587 45.2624V44.7359C80.587 44.5241 80.602 44.3011 80.632 44.0538C81.108 40.3678 85.611 37.5906 90.6912 37.1802C89.3682 40.6132 86.5779 42.6408 82.8545 43.5778M80.5852 33.3556V27.8425C80.5852 24.7018 82.9069 22.1027 86.1469 21.4262C86.5929 21.3325 87.0802 21.2838 87.5692 21.2594C87.1589 22.0371 86.8515 23.0977 86.5255 26.0585C86.1076 29.8832 85.7459 33.0051 80.5852 33.3556ZM78.5801 43.6958C73.9964 43.3492 70.2355 40.8063 68.6801 37.2346C73.0164 37.4444 78.1997 40.3059 78.5801 43.6958Z" fill="#F5B333"/>
<path d="M63.1929 47.1356C63.1498 46.967 62.9924 46.8152 62.8218 46.7777C59.653 46.0319 57.4399 42.9774 57.4399 39.3476C57.4399 37.3257 58.3094 36.0364 59.3382 34.5148C60.4869 32.8189 61.7912 30.8981 61.7912 27.7256C61.7912 25.3401 60.8505 22.949 59.0702 20.8089C58.9147 20.6216 58.6392 20.6759 58.5643 20.8989C58.4087 21.343 58.2626 21.8152 58.1277 22.3081C58.0883 22.4636 58.1277 22.6716 58.2176 22.799C59.3382 24.3863 59.9079 26.0428 59.9079 27.7256C59.9079 30.3153 58.8754 31.8388 57.7754 33.4616C56.6847 35.0695 55.5566 36.7316 55.5566 39.3458C55.5566 44.1674 58.7292 48.1213 63.1048 48.7472L63.1516 48.751C63.251 48.751 63.3409 48.7097 63.399 48.6367C63.459 48.5636 63.4796 48.4624 63.4571 48.3631L63.4102 48.1326C63.3428 47.784 63.2697 47.4523 63.191 47.1338" fill="#F5B333"/>
<path d="M92.7797 49.7946L92.7329 49.7889C92.6335 49.7777 92.5324 49.7627 92.4368 49.7496L92.3843 49.7458C92.2213 49.7458 92.0489 49.8395 91.9608 49.9763C90.6078 52.152 88.0106 53.5593 85.3402 53.5593C82.6699 53.5593 81.1989 52.2794 79.3793 50.7877C76.9957 48.8239 74.2916 46.5977 68.7767 46.5977C68.4206 46.5977 68.0833 46.6108 67.7535 46.6351C67.6504 46.6389 67.553 46.6876 67.493 46.7663C67.4312 46.8469 67.4087 46.9518 67.4293 47.053L67.4462 47.1392C67.4593 47.2029 67.4743 47.2685 67.4855 47.3397C67.5436 47.6302 67.6242 47.9206 67.7235 48.2055C67.7835 48.3741 67.9596 48.4959 68.1601 48.4959C68.3588 48.4866 68.563 48.4828 68.7748 48.4828C73.617 48.4828 75.9388 50.3923 78.1819 52.24C80.187 53.8853 82.0778 55.4388 85.3384 55.4388C88.301 55.4388 92.0995 53.8666 93.9116 50.353C93.9622 50.2537 93.9621 50.145 93.9153 50.055C93.8647 49.9651 93.771 49.9051 93.6604 49.8939C93.3569 49.8639 93.0664 49.8302 92.7797 49.7946Z" fill="#F5B333"/>
<path d="M77.7737 53.3695L77.4663 53.1184C77.4157 53.0753 77.3651 53.0303 77.322 53.0022C77.189 52.8879 76.9585 52.8579 76.8067 52.9347C75.9035 53.3545 74.9665 53.5588 73.9396 53.5588C73.0645 53.5588 72.1482 53.3995 71.2899 53.0978C68.672 52.1814 66.8806 50.1595 66.3727 47.5529C65.8405 44.8244 64.9354 42.5401 63.6125 40.5725C62.5855 39.0434 61.4687 37.9265 60.3874 36.8453L59.9452 36.4105C59.7934 36.2475 59.5217 36.2887 59.4224 36.4724C59.1769 36.8846 59.0026 37.2425 58.8714 37.608C58.8208 37.7523 58.8227 37.9565 58.9389 38.0633L59.0363 38.1589C60.0595 39.1821 61.1164 40.2389 62.0459 41.6219C63.2283 43.3778 64.0378 45.4372 64.5213 47.9164C65.1491 51.1452 67.4446 53.7462 70.6603 54.8761C71.7284 55.249 72.8303 55.4383 73.9359 55.4383C75.5193 55.4383 76.891 55.0804 78.2571 54.3102C78.3527 54.254 78.4108 54.1659 78.4202 54.0647C78.4277 53.9635 78.3827 53.8642 78.2909 53.7893C78.1147 53.6487 77.9423 53.5082 77.7699 53.3695" fill="#F5B333"/>
<path d="M54.3594 27.9567C54.3594 30.2841 54.7698 32.2236 55.613 33.8914C55.6711 33.9982 55.7667 34.06 55.8735 34.06C55.9728 34.06 56.0646 34.0057 56.1265 33.9101C56.3551 33.5484 56.7093 33.0219 56.8854 32.7614C56.9791 32.6246 56.9997 32.4129 56.9398 32.2554C56.4713 31.0505 56.2427 29.6432 56.2427 27.9567C56.2427 23.3974 57.6031 18.9937 60.1741 15.2215C61.1842 13.7449 62.3648 12.3844 63.6821 11.1776C63.9988 10.8834 64.338 10.5911 64.6903 10.3062C64.8496 10.1732 64.8739 9.93518 64.7428 9.77777L64.0213 8.90453C63.8939 8.75461 63.6503 8.72463 63.4929 8.85393C63.0806 9.18936 62.7246 9.49668 62.4097 9.79089C61.9544 10.205 61.499 10.6604 61.023 11.1757C59.0517 8.86142 60.1273 6.31852 61.6752 4.82313L63.6709 7.00999C63.8171 7.16928 64.0794 7.14679 64.1937 6.9519L65.8521 4.06044L66.4649 4.72943C66.5605 4.8325 66.7254 4.90371 66.8734 4.90371L69.718 4.4802L69.0528 7.20488C69.0097 7.36229 69.064 7.57592 69.1783 7.70147L69.7874 8.37046L66.7629 9.76091C66.6617 9.80401 66.5905 9.88646 66.568 9.98765C66.5455 10.0888 66.5773 10.1938 66.6523 10.2762L68.648 12.4556C66.9971 13.8892 64.9264 14.2489 63.3073 13.3401C63.1443 13.2501 62.9157 13.2858 62.7864 13.4282C62.5353 13.7205 62.2936 14.0185 62.0556 14.3239C61.9919 14.4064 61.9675 14.5113 61.9862 14.6106C62.005 14.7099 62.0649 14.7961 62.1493 14.8467C63.0937 15.4351 64.1356 15.7331 65.2506 15.7331C66.9315 15.7331 68.6349 15.021 70.0497 13.7299C70.3945 13.4151 70.6531 13.0534 70.7018 12.9766L70.9267 12.6411C71.0316 12.4725 71.011 12.2439 70.8817 12.1164L69.4819 10.5817L72.512 9.19123C72.6132 9.14439 72.6826 9.06193 72.7032 8.96262C72.7238 8.8633 72.6938 8.75836 72.6189 8.67591L71.0523 6.9594L72.1091 2.65313C72.1335 2.55006 72.1148 2.45262 72.0548 2.37766C71.9986 2.30458 71.9068 2.26523 71.8074 2.26523L67.445 2.91735C67.3962 2.91735 67.3344 2.89112 67.3119 2.86488L65.8034 1.21396C65.6554 1.05467 65.393 1.08091 65.2825 1.2683L63.6222 4.16351L62.2186 2.62502C62.093 2.4901 61.8476 2.45449 61.7014 2.54069L61.3247 2.74308C60.9537 2.95858 60.6914 3.17033 60.5358 3.309C59.1679 4.56078 58.3115 6.14049 58.1241 7.75769C57.9161 9.52292 58.482 11.1907 59.76 12.5849L59.7806 12.6074C59.314 13.1883 58.943 13.6849 58.6188 14.159C55.8323 18.2498 54.3613 23.0208 54.3613 27.9567" fill="#F5B333"/>
<path d="M101.156 22.307C101.032 21.8516 100.886 21.3794 100.717 20.8997C100.64 20.6804 100.369 20.6261 100.211 20.8116C98.4329 22.9554 97.4922 25.3465 97.4922 27.7283C97.4922 30.5822 98.5491 32.4168 99.5385 33.9122C99.6003 34.0096 99.7015 34.0659 99.8083 34.0659C99.9058 34.0659 99.9995 34.019 100.067 33.9347C100.357 33.5655 100.594 33.2188 100.79 32.8797C100.876 32.7297 100.873 32.5142 100.781 32.3625C100.05 31.195 99.3736 29.8233 99.3736 27.7301C99.3736 26.0511 99.9433 24.3927 101.066 22.8036C101.159 22.6705 101.195 22.4625 101.156 22.3108" fill="#F5B333"/>
<path d="M102.918 36.9984C102.639 37.3245 102.339 37.6505 101.944 38.059C101.835 38.1715 101.769 38.3701 101.788 38.5313C101.824 38.8049 101.839 39.071 101.839 39.3483C101.839 41.419 101.085 43.4203 99.7773 44.837C98.5143 46.2012 96.809 46.9508 94.9763 46.9508C94.3654 46.9508 93.7995 46.8815 93.1998 46.8065L93.1099 46.7953C92.4128 46.7091 91.547 46.6004 90.5033 46.6004C88.7005 46.6004 87.104 46.8365 85.6273 47.3218C83.5847 47.9908 82.0725 49.0571 80.8751 50.0034C80.7888 50.0653 80.7364 50.1589 80.7326 50.2601C80.7289 50.3632 80.7757 50.4625 80.8638 50.5337C81.2273 50.8242 81.5347 51.0509 81.8233 51.2477C81.8926 51.2983 81.9825 51.3264 82.0762 51.3264C82.1793 51.3264 82.2767 51.2945 82.3517 51.2365C83.2624 50.5375 84.5273 49.6661 86.2138 49.1096C87.505 48.6879 88.9085 48.4837 90.5051 48.4837C91.4327 48.4837 92.201 48.5811 92.915 48.6711C93.5933 48.7554 94.2324 48.8341 94.9782 48.8341C97.3468 48.8341 99.543 47.869 101.164 46.115C102.791 44.3498 103.726 41.8837 103.726 39.3483C103.726 38.5744 103.624 37.8417 103.416 37.109C103.328 36.8054 103.059 36.8391 102.92 36.9984" fill="#F5B333"/>
</g>
</svg>
